<svg width="1080" height="911" viewBox="0 0 1080 911" fill="none" xmlns="http://www.w3.org/2000/svg">
<path d="M607 885.5V551L894.5 705.5L607 885.5Z" stroke="white" stroke-opacity="0.5" stroke-width="50" stroke-linejoin="round"/>
<path d="M593 359.5V25L876.5 177L593 359.5Z" stroke="white" stroke-opacity="0.5" stroke-width="50" stroke-linejoin="round"/>
<path d="M486.5 551V885.5L199 731L486.5 551Z" stroke="white" stroke-opacity="0.5" stroke-width="50" stroke-linejoin="round"/>
<path d="M138.088 284.5L415.249 460.593L138.088 632.954L138.088 284.5Z" stroke="white" stroke-opacity="0.5" stroke-width="50" stroke-linejoin="round"/>
<path d="M952.584 608.083L660.219 448.583L952.585 257.583L952.584 608.083Z" stroke="white" stroke-opacity="0.5" stroke-width="50" stroke-linejoin="round"/>
<path d="M486.5 25V359.5L201.5 169L486.5 25Z" stroke="white" stroke-opacity="0.5" stroke-width="50" stroke-linejoin="round"/>
<path d="M582.545 461.407C582.545 484.762 563.461 503.814 539.773 503.814C516.084 503.814 497 484.762 497 461.407C497 438.052 516.084 419 539.773 419C563.461 419 582.545 438.052 582.545 461.407Z" stroke="white" stroke-opacity="0.5" stroke-width="20"/>
</svg>
