<svg width="900" height="900" viewBox="0 0 900 900" fill="none" xmlns="http://www.w3.org/2000/svg">
<g clip-path="url(#clip0)">
<path d="M492.545 450.407C492.545 473.762 473.461 492.814 449.773 492.814C426.084 492.814 407 473.762 407 450.407C407 427.052 426.084 408 449.773 408C473.461 408 492.545 427.052 492.545 450.407Z" stroke="white" stroke-opacity="0.5" stroke-width="20"/>
<path d="M860.888 250L548.992 451L860.888 648.5L860.888 250Z" stroke="white" stroke-opacity="0.5" stroke-width="50" stroke-linejoin="round"/>
<path d="M39.7515 250L348.751 451L39.7513 646.5L39.7515 250Z" stroke="white" stroke-opacity="0.5" stroke-width="50" stroke-linejoin="round"/>
<path d="M497 38.0001L794.5 182L497 368L497 38.0001Z" stroke="white" stroke-opacity="0.5" stroke-width="50" stroke-linejoin="round"/>
<path d="M403 39L103.936 181.5L403 367L403 39Z" stroke="white" stroke-opacity="0.5" stroke-width="50" stroke-linejoin="round"/>
<path d="M498.064 861.551L795.564 717.551L498.064 531.551L498.064 861.551Z" stroke="white" stroke-opacity="0.5" stroke-width="50" stroke-linejoin="round"/>
<path d="M404.064 860.551L105 718.051L404.064 532.551L404.064 860.551Z" stroke="white" stroke-opacity="0.5" stroke-width="50" stroke-linejoin="round"/>
</g>
<defs>
<clipPath id="clip0">
<rect width="900" height="900" fill="white"/>
</clipPath>
</defs>
</svg>
